<svg xmlns="http://www.w3.org/2000/svg" xmlns:xlink="http://www.w3.org/1999/xlink" version="1.1" x="0px" y="0px" viewBox="0 0 96 120" enable-background="new 0 0 96 96" xml:space="preserve"><path fill="#000000" d="M91.879,20.604l-15.738-9.922c-0.201-0.128-0.438-0.195-0.676-0.195H52.688V8.135  c0-0.227-0.038-2.244-1.442-3.649c-0.816-0.819-1.938-1.251-3.246-1.251c-1.303,0-2.425,0.432-3.242,1.251  c-1.405,1.405-1.443,3.423-1.443,3.647v3.542c-0.002,0.026-0.004,0.052-0.004,0.078v19.845c0,0.026,0.002,0.053,0.004,0.078v7.399  H20.536c-0.24,0-0.475,0.068-0.676,0.195L4.122,49.193c-0.368,0.232-0.591,0.637-0.591,1.072s0.223,0.84,0.591,1.072l15.738,9.922  c0.201,0.127,0.436,0.194,0.676,0.194h22.777V91.5c0,0.699,0.565,1.267,1.267,1.267h6.841c0.701,0,1.267-0.567,1.267-1.267V60.187  V40.342v-7.477h22.777c0.238,0,0.475-0.068,0.676-0.195l15.738-9.923c0.37-0.231,0.591-0.636,0.591-1.071  S92.249,20.836,91.879,20.604z M43.313,45.854v8.742v4.324H20.9l-3.611-2.278l-6.934-4.37l-3.183-2.007L20.9,41.61h22.413V45.854z   M50.154,10.487v1.267v1.268v4.244v8.742v4.324v1.267v1.268v6.21v1.267l0,0v1.268v4.244v8.742v4.324v1.267v1.267v28.779h-1.428  h-1.452h-1.426V61.454v-1.267V58.92v-4.324v-8.742V41.61v-1.268l0,0v-1.267v-6.21v-1.268v-1.267v-4.324v-8.742v-4.244v-1.268v-1.267  V8.141c0.006-0.496,0.147-1.994,1.575-2.312c0.173-0.039,0.364-0.061,0.575-0.061c0.216,0,0.405,0.021,0.578,0.061  c1.426,0.317,1.572,1.813,1.577,2.304V10.487z M85.646,23.683l-6.934,4.371l-3.611,2.277H52.688v-4.324v-8.742v-4.244h22.413  l13.727,8.655L85.646,23.683z"/><text x="0" y="111" fill="#000000" font-size="5px" font-weight="bold" font-family="'Helvetica Neue', Helvetica, Arial-Unicode, Arial, Sans-serif">Created by faisalovers</text><text x="0" y="116" fill="#000000" font-size="5px" font-weight="bold" font-family="'Helvetica Neue', Helvetica, Arial-Unicode, Arial, Sans-serif">from the Noun Project</text></svg>