<?xml version="1.0" standalone="no"?>
<!DOCTYPE svg PUBLIC "-//W3C//DTD SVG 20010904//EN"
 "http://www.w3.org/TR/2001/REC-SVG-20010904/DTD/svg10.dtd">
<svg version="1.0" xmlns="http://www.w3.org/2000/svg"
 width="600.000000pt" height="600.000000pt" viewBox="0 0 600.000000 600.000000"
 preserveAspectRatio="xMidYMid meet">
<metadata>
Created by potrace 1.11, written by Peter Selinger 2001-2013
</metadata>
<g transform="translate(0.000000,600.000000) scale(0.100000,-0.100000)"
fill="#000000" stroke="none">
<path d="M5760 4942 c-281 -22 -499 -121 -692 -316 -117 -119 -230 -296 -295
-461 -31 -81 -79 -226 -87 -267 -3 -13 -21 -79 -41 -148 -21 -69 -39 -135 -41
-147 -2 -12 -9 -35 -15 -50 -6 -16 -12 -35 -14 -43 -2 -8 -19 -71 -40 -140
-20 -69 -38 -133 -40 -143 -7 -33 -187 -652 -190 -655 -2 -2 -6 7 -11 20 -4
13 -25 61 -46 108 -22 47 -69 150 -105 230 -78 174 -70 156 -228 505 -142 314
-156 345 -195 430 -26 55 -66 143 -101 222 -14 33 -37 50 -49 36 -4 -4 -16
-30 -27 -58 -51 -123 -507 -1213 -519 -1240 -7 -16 -31 -75 -54 -130 -22 -54
-42 -101 -44 -102 -2 -2 -15 31 -30 74 -49 140 -197 556 -221 623 -13 36 -38
106 -55 155 -17 50 -42 119 -55 155 -93 256 -102 303 -70 357 24 42 73 72 122
75 33 2 43 7 43 20 0 16 -29 18 -397 21 l-398 3 -88 32 c-106 40 -150 47 -287
47 -116 -1 -158 -6 -240 -31 -48 -14 -119 -16 -562 -16 -490 0 -508 -1 -508
-19 0 -15 7 -19 36 -19 104 0 203 -75 223 -169 15 -69 16 -2019 1 -2072 -25
-90 -106 -156 -204 -166 -45 -5 -56 -9 -54 -22 3 -14 55 -16 535 -16 427 0
534 2 538 13 6 15 -3 18 -70 26 -68 8 -133 50 -170 110 l-30 49 0 398 -1 398
31 -20 c105 -70 281 -134 377 -138 11 -1 51 -50 105 -133 49 -73 90 -135 93
-138 3 -3 72 -106 155 -230 142 -214 283 -419 295 -430 3 -3 23 -27 45 -55 22
-27 72 -82 110 -122 l71 -72 -64 -58 c-124 -112 -240 -174 -372 -200 -64 -13
-80 -20 -80 -34 0 -34 191 -45 305 -18 107 25 205 76 343 176 14 10 27 6 72
-22 30 -19 60 -38 65 -42 24 -20 206 -104 275 -127 228 -75 504 -91 735 -42
86 18 237 65 249 77 6 5 17 9 26 9 23 0 56 38 44 50 -5 5 -52 11 -105 15 -53
3 -107 8 -120 10 -105 20 -144 29 -214 51 -94 29 -95 29 -205 82 -83 40 -247
143 -304 192 -55 47 -140 125 -163 148 -21 23 -21 24 -4 55 10 18 64 142 120
277 57 135 123 292 148 350 24 58 49 116 55 130 5 14 16 39 24 55 7 17 43 102
79 189 37 88 75 178 85 200 16 36 116 277 158 379 8 20 18 37 21 37 3 0 12
-15 20 -32 14 -32 88 -195 146 -323 15 -33 44 -98 65 -145 21 -47 51 -114 68
-150 16 -36 62 -137 102 -225 107 -237 110 -244 146 -323 19 -41 34 -75 34
-77 0 -1 20 -45 44 -96 24 -52 67 -147 96 -212 29 -64 56 -117 59 -117 19 1
26 22 29 80 2 63 24 193 42 255 10 36 157 499 170 535 7 22 42 130 182 570 22
69 51 157 63 195 13 39 51 158 85 265 56 176 136 423 188 585 100 304 248 538
440 695 127 104 356 194 510 199 15 1 22 7 22 21 0 17 -7 20 -42 21 -24 0 -59
2 -78 2 -19 1 -51 1 -70 -1z m-3447 -2215 c32 -89 62 -171 67 -182 5 -11 43
-114 85 -230 42 -115 82 -226 90 -245 41 -105 69 -187 68 -200 -2 -20 -42
-108 -52 -114 -5 -3 -69 71 -142 165 -357 456 -388 494 -444 553 -16 17 -40
43 -53 57 l-23 26 58 38 c72 47 190 165 239 239 20 31 40 56 43 56 3 0 32 -73
64 -163z"/>
<path d="M1878 4354 c-14 -7 -28 -23 -31 -34 -4 -16 0 -14 23 10 23 25 32 29
52 21 28 -10 48 -45 41 -72 -12 -45 -86 -49 -103 -6 -6 14 -9 17 -9 6 -1 -20
30 -49 53 -49 28 0 56 19 66 46 21 55 -39 106 -92 78z"/>
<path d="M3013 4364 c3 -4 17 -12 29 -18 30 -15 38 -74 12 -93 -27 -20 -61
-16 -78 9 -22 31 -20 54 6 78 12 11 17 20 10 20 -16 0 -42 -41 -42 -65 0 -31
36 -65 69 -65 35 0 61 28 61 66 0 38 -9 50 -45 64 -16 6 -26 8 -22 4z"/>
<path d="M3606 4354 c-23 -22 -17 -36 25 -56 38 -20 46 -51 13 -56 -12 -2 -30
5 -39 15 -12 12 -17 13 -14 4 14 -42 89 -39 89 3 0 18 -9 27 -40 40 -43 17
-50 30 -23 45 10 5 15 12 12 16 -4 3 -14 -2 -23 -11z"/>
<path d="M3950 4359 c-25 -10 -40 -26 -40 -44 0 -5 7 1 16 13 8 12 24 22 35
22 10 0 19 5 19 10 0 6 -1 10 -2 9 -2 0 -14 -5 -28 -10z"/>
<path d="M4390 4358 c0 -6 3 -8 7 -5 3 4 17 0 30 -8 13 -9 23 -12 23 -7 0 5
-11 14 -25 20 -32 15 -35 15 -35 0z"/>
<path d="M204 4348 c3 -7 12 -37 21 -66 9 -28 21 -50 26 -46 5 3 7 8 5 12 -2
4 4 22 13 41 l18 33 13 -46 c7 -26 16 -43 21 -39 10 11 40 115 35 121 -3 2
-10 -16 -17 -40 -17 -61 -24 -64 -38 -18 -11 38 -30 55 -31 28 -1 -7 -7 -26
-14 -43 l-14 -30 -12 48 c-7 26 -16 50 -21 53 -5 3 -7 -1 -5 -8z"/>
<path d="M470 4354 c0 -17 25 -91 36 -108 12 -17 14 -14 25 29 l12 49 21 -49
21 -48 18 54 c10 30 21 60 24 68 3 8 1 11 -4 8 -6 -4 -16 -28 -23 -54 l-14
-47 -19 45 -19 44 -14 -30 c-7 -16 -13 -36 -14 -43 0 -27 -18 -1 -29 43 -10
39 -21 59 -21 39z"/>
<path d="M736 4331 c3 -19 13 -50 22 -70 l15 -36 13 35 c17 46 16 63 -1 25
-10 -22 -15 -26 -19 -15 -3 8 -13 33 -21 55 -14 38 -15 39 -9 6z"/>
<path d="M870 4336 c-5 -15 -10 -33 -10 -39 0 -7 -4 -18 -9 -26 -7 -11 -12 -3
-22 27 -12 41 -22 51 -33 33 -3 -5 1 -11 9 -14 7 -3 17 -22 21 -41 3 -20 10
-36 15 -36 5 0 9 1 9 3 0 1 9 27 20 56 11 30 18 57 15 59 -2 3 -9 -7 -15 -22z"/>
<path d="M1116 4352 c-3 -5 8 -7 23 -4 16 2 32 -1 35 -7 4 -6 13 -11 19 -11 7
0 3 7 -7 15 -21 16 -62 20 -70 7z"/>
<path d="M1333 4303 c-13 -32 -27 -62 -31 -68 -3 -5 7 3 22 18 14 16 24 32 21
37 -3 5 -1 19 6 31 10 20 13 18 40 -37 16 -33 29 -53 29 -47 0 14 -50 123 -57
123 -2 0 -16 -26 -30 -57z"/>
<path d="M1527 4353 c19 -4 23 -12 26 -66 l3 -62 2 62 c2 55 4 62 25 66 12 2
0 4 -28 4 -27 0 -40 -2 -28 -4z"/>
<path d="M1718 4322 c-1 -21 0 -51 3 -67 5 -21 7 -9 8 38 1 73 -5 90 -11 29z"/>
<path d="M2086 4345 c-3 -8 -1 -15 5 -15 14 0 29 -16 62 -65 15 -22 27 -33 28
-25 5 73 4 118 -2 115 -4 -3 -5 -18 -4 -34 4 -53 -10 -56 -45 -7 -19 25 -34
46 -36 46 -1 0 -4 -7 -8 -15z"/>
<path d="M2325 4299 c-15 -33 -25 -63 -22 -66 3 -2 8 5 12 16 4 12 16 21 28
22 17 1 18 2 5 6 -21 5 -22 10 -4 42 l14 24 11 -22 c7 -12 9 -26 6 -31 -3 -5
6 -21 20 -36 31 -34 31 -30 0 34 -14 29 -25 56 -25 62 0 27 -20 4 -45 -51z"/>
<path d="M2533 4295 c0 -38 2 -53 4 -32 2 20 2 52 0 70 -2 17 -4 1 -4 -38z"/>
<path d="M2705 4323 c8 -21 19 -51 25 -68 l12 -30 15 50 c15 48 16 49 25 25
32 -81 29 -80 49 -15 24 77 23 98 -1 25 l-18 -55 -11 30 c-7 17 -14 36 -16 43
-7 20 -23 5 -30 -28 -9 -42 -20 -37 -35 15 -7 25 -16 45 -20 45 -4 0 -2 -17 5
-37z"/>
<path d="M3199 4358 c0 -2 -2 -18 -4 -35 -3 -26 0 -33 13 -33 10 0 13 3 7 8
-5 4 -11 17 -11 30 -1 19 3 23 25 20 30 -3 45 -48 17 -48 -20 0 -20 -3 4 -42
21 -35 28 -31 9 4 -8 14 -8 23 0 31 16 16 13 54 -5 61 -15 6 -53 8 -55 4z"/>
<path d="M3394 4316 c1 -47 9 -59 20 -30 7 20 23 10 47 -30 10 -17 19 -25 19
-18 0 7 -10 26 -22 42 l-22 30 24 25 c13 14 20 25 16 25 -4 0 -19 -14 -33 -30
-24 -29 -50 -32 -40 -6 3 7 2 18 -3 25 -4 7 -7 -7 -6 -33z"/>
<path d="M3641 4357 c2 -1 12 -9 22 -16 15 -12 17 -12 11 3 -3 9 -13 16 -22
16 -8 0 -13 -1 -11 -3z"/>
<path d="M4001 4348 c26 -21 32 -56 15 -83 -26 -40 -76 -32 -95 15 -9 23 -10
23 -10 4 -2 -40 60 -70 95 -46 39 26 40 93 1 112 -19 10 -20 9 -6 -2z"/>
<path d="M4151 4293 c1 -50 3 -60 8 -38 4 17 5 45 3 63 -5 32 -3 33 24 30 21
-2 30 -9 32 -25 3 -21 -6 -28 -31 -24 -4 1 3 -14 15 -33 13 -19 24 -33 26 -31
2 2 -4 14 -13 28 -14 22 -14 25 0 30 18 8 20 38 3 55 -7 7 -25 12 -40 12 l-28
0 1 -67z"/>
<path d="M4350 4341 c-35 -66 22 -138 80 -101 9 6 17 5 22 -3 4 -7 8 4 8 26 0
34 -2 37 -27 36 -24 -2 -25 -2 -5 -6 29 -6 28 -31 -3 -45 -39 -18 -75 3 -75
43 0 18 7 41 17 51 9 10 11 18 5 18 -6 0 -16 -9 -22 -19z"/>
<path d="M1166 4299 c-11 -10 -15 -19 -9 -19 5 0 18 9 28 20 23 26 6 25 -19
-1z"/>
<path d="M1120 4300 c10 -6 11 -10 3 -10 -13 0 -13 -34 0 -46 3 -4 5 3 2 14
-2 12 1 24 6 27 12 8 2 25 -14 25 -7 0 -6 -4 3 -10z"/>
<path d="M2085 4280 c3 -5 8 -10 11 -10 2 0 4 5 4 10 0 6 -5 10 -11 10 -5 0
-7 -4 -4 -10z"/>
<path d="M3193 4260 c-1 -11 2 -20 7 -20 4 0 7 7 6 15 -3 23 -12 26 -13 5z"/>
<path d="M1170 4263 c0 -4 5 -15 10 -23 8 -13 10 -13 10 2 0 9 -4 20 -10 23
-5 3 -10 3 -10 -2z"/>
<path d="M2085 4250 c3 -5 8 -10 11 -10 2 0 4 5 4 10 0 6 -5 10 -11 10 -5 0
-7 -4 -4 -10z"/>
<path d="M2590 4240 c0 -5 5 -10 11 -10 5 0 7 5 4 10 -3 6 -8 10 -11 10 -2 0
-4 -4 -4 -10z"/>
</g>
</svg>
